<?xml version="1.0" encoding="UTF-8" standalone="no"?>
<svg
   xmlns:osb="http://www.openswatchbook.org/uri/2009/osb"
   xmlns:dc="http://purl.org/dc/elements/1.1/"
   xmlns:cc="http://creativecommons.org/ns#"
   xmlns:rdf="http://www.w3.org/1999/02/22-rdf-syntax-ns#"
   xmlns:svg="http://www.w3.org/2000/svg"
   xmlns="http://www.w3.org/2000/svg"
   xmlns:xlink="http://www.w3.org/1999/xlink"
   xmlns:sodipodi="http://sodipodi.sourceforge.net/DTD/sodipodi-0.dtd"
   xmlns:inkscape="http://www.inkscape.org/namespaces/inkscape"
   version="1.1"
   id="svg1489"
   width="1800"
   height="1800"
   viewBox="0 0 1800 1800"
   sodipodi:docname="favicon-bold-color201202.svg"
   inkscape:version="1.0.1 (3bc2e813f5, 2020-09-07)">
  <metadata
     id="metadata1495">
    <rdf:RDF>
      <cc:Work
         rdf:about="">
        <dc:format>image/svg+xml</dc:format>
        <dc:type
           rdf:resource="http://purl.org/dc/dcmitype/StillImage" />
        <dc:title />
      </cc:Work>
    </rdf:RDF>
  </metadata>
  <defs
     id="defs1493">
    <linearGradient
       inkscape:collect="always"
       id="linearGradient3642"
       osb:paint="gradient">
      <stop
         style="stop-color:#ffcff1;stop-opacity:1;"
         offset="0"
         id="stop3638" />
      <stop
         style="stop-color:#ffcff1;stop-opacity:0;"
         offset="1"
         id="stop3640" />
    </linearGradient>
    <linearGradient
       inkscape:collect="always"
       id="linearGradient3630"
       osb:paint="gradient">
      <stop
         style="stop-color:#ffcff1;stop-opacity:1;"
         offset="0"
         id="stop3626" />
      <stop
         style="stop-color:#ffcff1;stop-opacity:0;"
         offset="1"
         id="stop3628" />
    </linearGradient>
    <linearGradient
       id="linearGradient3622"
       osb:paint="solid">
      <stop
         style="stop-color:#6074ac;stop-opacity:1;"
         offset="0"
         id="stop3620" />
    </linearGradient>
    <linearGradient
       id="linearGradient3600"
       osb:paint="solid">
      <stop
         style="stop-color:#ffcff1;stop-opacity:1;"
         offset="0"
         id="stop3598" />
    </linearGradient>
    <linearGradient
       inkscape:collect="always"
       id="dd-8ddddd-0">
      <stop
         style="stop-color:#61cff1;stop-opacity:1;"
         offset="0"
         id="stop3391" />
      <stop
         style="stop-color:#61cff1;stop-opacity:0;"
         offset="1"
         id="stop3393" />
    </linearGradient>
    <linearGradient
       id="linearGradient3352"
       osb:paint="solid">
      <stop
         style="stop-color:#a474f1;stop-opacity:1;"
         offset="0"
         id="stop3350" />
    </linearGradient>
    <linearGradient
       inkscape:collect="always"
       xlink:href="#dd-8ddddd-0"
       id="linearGradient3384"
       x1="79.984459"
       y1="880.85297"
       x2="1879.9844"
       y2="880.85297"
       gradientUnits="userSpaceOnUse" />
  </defs>
  <sodipodi:namedview
     pagecolor="#ffffff"
     bordercolor="#666666"
     borderopacity="1"
     objecttolerance="10"
     gridtolerance="10"
     guidetolerance="10"
     inkscape:pageopacity="0"
     inkscape:pageshadow="2"
     inkscape:window-width="1920"
     inkscape:window-height="1057"
     id="namedview1491"
     showgrid="false"
     inkscape:snap-object-midpoints="false"
     inkscape:snap-center="false"
     inkscape:zoom="0.33727412"
     inkscape:cx="800.73537"
     inkscape:cy="1132.421"
     inkscape:window-x="-8"
     inkscape:window-y="-8"
     inkscape:window-maximized="1"
     inkscape:current-layer="g1497"
     inkscape:document-rotation="0" />
  <g
     inkscape:groupmode="layer"
     id="layer1"
     inkscape:label="Image 1" />
  <g
     inkscape:groupmode="layer"
     inkscape:label="Image"
     id="g1497">
    <g
       id="g2078"
       transform="translate(-79.984423,19.338624)"
       style="fill:#241c1c;fill-opacity:1;stroke:#241c1c;stroke-opacity:1">
      <path
         style="fill:#241c1c;fill-opacity:1;stroke:#241c1c;stroke-width:127.005;stroke-miterlimit:4;stroke-dasharray:none;stroke-opacity:1;opacity:1;fill-rule:nonzero"
         d="M 1162.7816,1650.8156 C 1013.7989,1612.7863 591.63123,1296.1616 524.48658,1252.7758 460.47875,1207.1785 225.89996,1030.5672 166.48955,917.38507 151.26136,885.32539 146.28401,865.52429 143.98741,827.86639 138.79681,742.75487 177.2902,633.84256 261.09332,496.52948 400.94301,267.38302 515.12112,148.33545 625.01599,117.0862 c 52.45727,-14.91654 129.48006,-7.79912 198.78489,18.36904 235.71952,98.93976 421.23332,256.12554 601.44752,365.80711 142.4563,86.70131 273.2056,178.99861 364.1125,266.99183 18.6657,18.06748 37.2856,42.84008 23.0855,67.58912 -13.6434,23.0919 -79.6912,-15.81926 -165.4195,-65.40266 -217.0124,-125.51508 -214.9196,-130.6281 -253.559,-126.71515 -126.213,13.35383 -206.3414,198.09477 -158.2105,290.58446 74.3042,112.65365 236.581,219.43025 256.8016,347.92745 3.0695,78.1997 -31.385,153.8455 -73.7631,218.2091 -59.4644,89.752 -167.6641,166.1999 -255.5143,150.3691 z m 186.6539,-313.7962 c 17.3169,-193.8559 -234.145,-233.7131 -264.9267,-402.70945 -3.5889,-28.95385 0.4174,-67.05701 10.1895,-96.91129 22.6263,-69.12372 89.3287,-177.92344 155.7926,-254.11691 35.5529,-38.17276 -38.6075,-74.20542 -88.6969,-105.85734 -4.2859,0.63445 -45.0742,57.93463 -129.5812,182.03878 -67.82971,99.61207 -122.85901,182.0171 -123.36278,182.79021 -49.97401,76.69303 -102.87722,151.75354 -157.34992,232.1607 -29.71487,43.8771 -61.19793,85.1911 -65.33742,94.5499 -22.78932,51.5235 25.89866,65.2197 85.99479,109.1112 249.47763,166.9077 148.18434,94.5686 193.05178,126.2895 50.60695,35.7787 162.11415,107.7127 194.67125,111.2954 103.4468,11.3836 182.6644,-101.5035 189.555,-178.6407 z M 570.01013,1079.1675 c 73.50118,-3.3032 82.03625,-42.0956 110.69949,-84.48659 C 772.47473,858.96671 869.417,717.58238 954.92924,591.14867 992.46773,535.64625 1078.0016,430.64428 1028.6207,388.04386 939.97901,311.57362 836.12739,245.26063 724.38781,228.89474 620.8508,213.73024 527.01953,288.2726 395.91193,488.56475 264.44216,689.41017 233.89244,802.37999 287.17158,890.67547 c 16.65237,27.5968 34.838,46.17645 96.62232,105.17019 64.38876,61.48054 108.60641,86.80964 186.21623,83.32184 z"
         id="path2080"
         sodipodi:nodetypes="cccssscsscscccccscsccsscscssssssssssss" />
    </g>
  </g>
</svg>
