<?xml version="1.0" encoding="UTF-8" standalone="no"?>
<svg
   xmlns:dc="http://purl.org/dc/elements/1.1/"
   xmlns:cc="http://creativecommons.org/ns#"
   xmlns:rdf="http://www.w3.org/1999/02/22-rdf-syntax-ns#"
   xmlns:svg="http://www.w3.org/2000/svg"
   xmlns="http://www.w3.org/2000/svg"
   xmlns:sodipodi="http://sodipodi.sourceforge.net/DTD/sodipodi-0.dtd"
   xmlns:inkscape="http://www.inkscape.org/namespaces/inkscape"
   version="1.1"
   id="svg1489"
   width="1800"
   height="1800"
   viewBox="0 0 1800 1800"
   sodipodi:docname="제목 없음-2.svg"
   inkscape:version="1.0.1 (3bc2e813f5, 2020-09-07)">
  <metadata
     id="metadata1495">
    <rdf:RDF>
      <cc:Work
         rdf:about="">
        <dc:format>image/svg+xml</dc:format>
        <dc:type
           rdf:resource="http://purl.org/dc/dcmitype/StillImage" />
        <dc:title></dc:title>
      </cc:Work>
    </rdf:RDF>
  </metadata>
  <defs
     id="defs1493" />
  <sodipodi:namedview
     pagecolor="#ffffff"
     bordercolor="#666666"
     borderopacity="1"
     objecttolerance="10"
     gridtolerance="10"
     guidetolerance="10"
     inkscape:pageopacity="0"
     inkscape:pageshadow="2"
     inkscape:window-width="1920"
     inkscape:window-height="1057"
     id="namedview1491"
     showgrid="false"
     inkscape:snap-object-midpoints="false"
     inkscape:snap-center="false"
     inkscape:zoom="0.23848882"
     inkscape:cx="649.24377"
     inkscape:cy="848.7744"
     inkscape:window-x="-8"
     inkscape:window-y="-8"
     inkscape:window-maximized="1"
     inkscape:current-layer="g2078" />
  <g
     inkscape:groupmode="layer"
     inkscape:label="Image"
     id="g1497">
    <g
       id="g2078"
       transform="translate(-79.984423,19.338624)">
      <path
         style="fill:#333333;fill-opacity:1;stroke-width:3.41755"
         d="M 1176.1631,1708.414 C 1015.9368,1667.5147 561.90862,1326.9946 489.69663,1280.3345 420.85818,1231.2961 168.57595,1041.3561 104.6819,919.63218 88.304442,885.15299 82.951464,863.85752 80.481535,823.35761 74.899193,731.82281 116.29765,614.69098 206.42533,467.01501 356.82934,220.57509 479.62436,92.543111 597.81289,58.935514 654.22907,42.893232 737.0647,50.547788 811.59989,78.690847 1065.109,185.09749 1264.6233,354.14594 1458.4381,472.10506 c 153.2072,93.24459 293.8241,192.50748 391.5916,287.14145 20.0744,19.43103 40.0996,46.07319 24.8278,72.69002 -14.673,24.83463 -85.7053,-17.01312 -177.9036,-70.33854 -233.3901,-134.98758 -231.1393,-140.48647 -272.6948,-136.27822 -135.7382,14.36163 -221.9137,213.0448 -170.1504,312.51459 79.9118,121.15554 254.4355,235.99054 276.1821,374.18514 3.3011,84.1015 -33.7536,165.4561 -79.33,234.6772 -63.9521,96.5254 -180.3175,178.7428 -274.7977,161.7173 z m 200.7405,-337.4782 c 18.6238,-208.486 -251.8157,-251.351 -284.9205,-433.10144 -3.8597,-31.13896 0.4489,-72.11774 10.9585,-104.22508 24.3339,-74.34043 96.0703,-191.35116 167.5502,-273.29489 38.236,-41.05361 -41.5212,-79.80563 -95.3908,-113.84629 -4.6093,0.68233 -48.4759,62.3069 -139.3606,195.77708 -72.94872,107.1297 -132.13099,195.75376 -132.67278,196.58522 -53.74551,82.48097 -110.64127,163.2062 -169.22498,249.6817 -31.95741,47.1883 -65.81648,91.6203 -70.26837,101.6854 -24.50921,55.4119 27.8532,70.1418 92.48474,117.3458 268.30539,179.504 159.36767,101.7056 207.62125,135.8204 54.42624,38.4789 174.34864,115.8417 209.36284,119.6948 111.2537,12.2426 196.4499,-109.164 203.8605,-192.1227 z M 538.6558,1093.6242 c 79.04823,-3.5525 88.22745,-45.2726 119.05387,-90.8627 C 756.40021,856.80504 860.65863,704.75057 952.62439,568.77502 992.99592,509.08389 1084.9848,396.15752 1031.8772,350.34209 936.54588,268.10071 824.85668,196.78314 704.68422,179.18213 593.33336,162.87318 492.42074,243.04119 351.41857,458.4492 210.0269,674.45223 177.17162,795.94778 234.47168,890.90683 c 17.90911,29.67951 37.4672,49.66135 103.91433,113.10727 69.24811,66.1204 116.80282,93.3611 200.26979,89.6101 z"
         id="path2080"
         sodipodi:nodetypes="cccssscsscscccccscsccsscscssssssssssss" />
    </g>
  </g>
</svg>
